# xmcd
#
# Track frame offsets:
#	150
#	19487
#	41887
#	62900
#	80137
#	94475
#	110225
#	128500
#	147575
#	164987
#	180775
#
# Disc length: 2645 seconds
#
# Revision: 6
# Processed by: cddbd v1.5.2PL0 Copyright (c) Steve Scherf et al.
# Submitted via: EasyCDDAExtractor 10.0.5.1
#
DISCID=aa0a530b
DTITLE=Various Artist - 曾航生、想念你
DYEAR=1991
DGENRE=Oldies
TTITLE0=曾航生 - 愛似乃
TTITLE1=曾航生 - 想念你
TTITLE2=曾航生 - 夜曲
TTITLE3=曾航生 - 日夜懷念你
TTITLE4=曾航生 - 情是最誤人
TTITLE5=曾航生、何婉盈 - 再見亦是朋友
TTITLE6=曾航生 - 吻別
TTITLE7=曾航生 - 情感的三角
TTITLE8=曾航生 - 落雲
TTITLE9=曾航生 - 不再傲
TTITLE10=曾航生 - 妳真的最好
EXTD=YEAR: 1991
EXTT0=
EXTT1=
EXTT2=
EXTT3=
EXTT4=
EXTT5=
EXTT6=
EXTT7=
EXTT8=
EXTT9=
EXTT10=
PLAYORDER=
